<?xml version="1.0" encoding="UTF-8"?><svg id="Capa_2" xmlns="http://www.w3.org/2000/svg" viewBox="0 0 512.59 133.25"><defs><style>.cls-1{fill:#010101;}.cls-2{fill:#010102;}.cls-3{fill:#010202;}.cls-4{fill:#030404;}.cls-5{fill:#030304;}.cls-6{fill:#030303;}.cls-7{fill:#020202;}.cls-8{fill:#020303;}.cls-9{fill:#fff;}</style></defs><g id="Capa_1-2"><g><path class="cls-1" d="M37.81,91.39c-3.42-1.96-6.63-3.84-9.89-5.63-.95-.52-1.31-1.11-1.31-2.22,.05-11.28,.05-22.57,0-33.85,0-1.12,.39-1.68,1.32-2.21,18.29-10.51,36.55-21.04,54.82-31.57,1.48-.85,2.4-.43,2.83,1.23,.27,1.06-.74,.98-1.2,1.25-11.1,6.43-22.22,12.83-33.34,19.23-6.76,3.89-13.5,7.8-20.28,11.65-.93,.53-1.31,1.07-1.3,2.19,.06,10.13,.05,20.26,0,30.39,0,1.1,.3,1.71,1.27,2.24,3.03,1.65,6.03,3.37,9.01,5.13,.71,.42,1.22,.46,1.94,0,1.52-.98,3.11-1.85,4.91-2.9-3.34-1.93-6.47-3.8-9.66-5.57-.99-.55-1.42-1.14-1.41-2.34,.06-7.82,.07-15.64,0-23.45-.01-1.29,.46-1.9,1.5-2.5,18.23-10.47,36.44-20.97,54.64-31.48,.95-.55,1.57-1,2.36,.37,.77,1.33,.18,1.67-.81,2.24-17.65,10.13-35.28,20.3-52.94,30.42-1.29,.74-1.92,1.47-1.89,3.11,.13,6.52,.08,13.05,.03,19.58,0,1.14,.28,1.81,1.34,2.37,2.87,1.53,5.69,3.15,8.47,4.84,.99,.6,1.72,.71,2.72,0,1.38-.96,2.89-1.73,4.55-2.7-3.42-1.96-6.61-3.83-9.83-5.63-.92-.51-1.34-1.09-1.32-2.23,.08-4.42,.07-8.84,0-13.26-.02-1.15,.31-1.82,1.35-2.41,18.68-10.73,37.35-21.49,56-32.27,.8-.46,1.37-.47,2.16,0,3.96,2.34,7.96,4.64,11.97,6.9,.8,.45,1.13,.93,1.12,1.88-.03,21.62-.04,43.24,.02,64.85,0,1.22-.61,1.63-1.44,2.11-18.28,10.51-36.56,21.04-54.84,31.56-.81,.47-1.43,1.08-2.21-.27-.78-1.34-.17-1.67,.81-2.24,17.64-10.15,35.26-20.34,52.92-30.47,1.32-.76,1.85-1.52,1.85-3.12-.07-19.99-.06-39.97-.02-59.96,0-1.37-.33-2.19-1.6-2.87-2.93-1.56-5.75-3.32-8.63-4.97-.48-.28-.91-.74-1.64-.26-1.64,1.07-3.35,2-5.26,3.12,3.44,1.97,6.63,3.84,9.87,5.61,1.04,.57,1.37,1.24,1.36,2.4-.04,17.95-.05,35.89,.01,53.84,0,1.4-.56,2-1.66,2.63-17.95,10.29-35.87,20.61-53.79,30.93q-2.4,1.38-3.77-1.11c12.4-7.15,24.8-14.29,37.2-21.45,5.81-3.35,11.6-6.75,17.45-10.05,1.06-.6,1.53-1.22,1.53-2.5-.05-16.86-.04-33.72,0-50.58,0-1.15-.3-1.83-1.34-2.4-2.91-1.59-5.78-3.26-8.61-5-.94-.58-1.66-.56-2.55,.02-1.41,.93-2.9,1.75-4.54,2.73,3.39,1.96,6.65,3.89,9.97,5.71,.97,.53,1.28,1.11,1.28,2.2-.04,14.68-.04,29.37,0,44.05,0,1-.27,1.54-1.17,2.06-18.47,10.59-36.93,21.22-55.37,31.86-.85,.49-1.36,.83-1.98-.37-.58-1.11-.62-1.59,.6-2.28,17.73-10.13,35.42-20.34,53.15-30.48,1.28-.73,1.74-1.49,1.73-2.98-.07-13.19-.08-26.38,0-39.56,.01-1.62-.54-2.42-1.87-3.14-2.68-1.45-5.31-2.99-7.9-4.61-.99-.62-1.72-.71-2.72-.04-1.39,.94-2.9,1.71-4.61,2.7,3.33,1.92,6.42,3.78,9.59,5.49,1.16,.63,1.63,1.28,1.62,2.65-.07,11.15-.05,22.3-.01,33.45,0,1.16-.33,1.8-1.37,2.39-18.29,10.5-36.56,21.03-54.81,31.61-1.23,.71-1.7,.55-2.45-.64-.89-1.42,.2-1.55,.92-1.96,17.71-10.18,35.41-20.36,53.15-30.47,1.3-.74,1.73-1.52,1.72-3-.07-9.86-.07-19.71,0-29.57,0-1.35-.4-2.05-1.55-2.68-2.86-1.55-5.65-3.21-8.44-4.9-.88-.53-1.57-.66-2.49-.03-1.39,.95-2.9,1.74-4.65,2.77,2.97,1.72,5.73,3.49,8.63,4.95,1.86,.94,2.51,2.09,2.47,4.21-.15,7.34-.09,14.68-.03,22.02,.01,1.3-.33,2.04-1.5,2.71-18.24,10.46-36.45,20.96-54.65,31.48-.95,.55-1.56,.95-2.34-.4-.79-1.36-.13-1.67,.84-2.22,17.72-10.14,35.43-20.33,53.17-30.45,1.22-.7,1.62-1.47,1.6-2.85-.07-6.53-.06-13.05,0-19.58,.01-1.22-.27-1.95-1.42-2.55-2.88-1.51-5.68-3.17-8.47-4.83-.89-.53-1.57-.73-2.53-.06-1.38,.96-2.91,1.7-4.65,2.68,3.39,1.96,6.55,3.84,9.76,5.61,1.03,.57,1.4,1.21,1.38,2.4-.08,4.35-.08,8.7,0,13.05,.02,1.25-.37,1.92-1.46,2.55-18.62,10.7-37.22,21.43-55.8,32.19-.87,.5-1.51,.49-2.35,0-3.9-2.31-7.82-4.6-11.79-6.8-.9-.5-1.2-1.04-1.2-2.04C.04,77.42,.05,55.87,0,34.32c0-1.16,.47-1.64,1.36-2.16C19.65,21.66,37.92,11.13,56.2,.61c.84-.49,1.55-1.23,2.35,.32,.69,1.35,.13,1.68-.85,2.25C40.11,13.29,22.55,23.46,4.95,33.53c-1.47,.84-2.04,1.7-2.03,3.44,.07,19.85,.07,39.7,.01,59.55,0,1.53,.34,2.43,1.77,3.16,2.83,1.45,5.57,3.09,8.3,4.73,.86,.51,1.51,.56,2.37,0,1.41-.91,2.9-1.7,4.67-2.72-3.29-1.92-6.33-3.76-9.44-5.47-1.27-.69-1.79-1.47-1.79-2.98,.06-17.74,.05-35.49,.02-53.23,0-1.34,.3-2.15,1.58-2.88C28.66,26.72,46.87,16.22,65.08,5.71c.95-.55,1.55-1.04,2.36,.35,.83,1.42-.01,1.71-.91,2.23C48.91,18.46,31.29,28.64,13.63,38.77c-1.27,.73-1.78,1.46-1.77,2.96,.06,16.66,.06,33.31,0,49.97,0,1.39,.36,2.18,1.65,2.84,2.83,1.45,5.57,3.09,8.29,4.74,.93,.57,1.65,.58,2.55-.02,1.41-.94,2.9-1.75,4.56-2.74-3.38-1.95-6.63-3.88-9.95-5.69-.96-.52-1.3-1.08-1.3-2.18,.04-14.68,.05-29.37,0-44.05,0-1.15,.44-1.64,1.34-2.16,18.35-10.53,36.68-21.1,55.02-31.65,.72-.41,1.39-1.32,2.17,.2,.67,1.29,.44,1.73-.75,2.41-17.71,10.16-35.38,20.38-53.09,30.54-1.21,.7-1.65,1.45-1.64,2.85,.06,13.32,.05,26.65,0,39.97,0,1.22,.28,1.93,1.42,2.54,2.87,1.52,5.64,3.23,8.47,4.84,.54,.31,1,.91,1.82,.4,1.71-1.07,3.49-2.05,5.38-3.14Z"/><path class="cls-2" d="M450.1,70.08c0-10.06,.06-20.13-.05-30.19-.02-2.05,.62-2.42,2.5-2.4,8.65,.1,17.31,0,25.97,.05,9.81,.05,16.95,5.11,22.04,12.89,13.02,19.88-.81,41.12-16.52,45.09-4.9,1.24-9.94,.54-14.91,.63-4.9,.09-4.91,.02-4.89-4.93,.04-12.47,.11-24.94,.15-37.41,0-1.27-.22-2.36,1.82-2.37,2.14-.01,1.94,1.11,1.93,2.49-.07,12.06-.08,24.11-.21,36.17-.02,1.78,.29,2.55,2.26,2.34,1.89-.2,3.83-.14,5.74-.03,10.47,.64,17.61-4.68,22.57-13.15,5.15-8.8,4.47-17.84-.74-26.43-4.58-7.56-11.19-11.71-20.38-11.45-7.31,.21-14.64,0-21.96-.11-1.39-.02-1.66,.49-1.66,1.73,.03,18.22,.04,36.43-.01,54.65,0,1.47,.47,1.78,1.84,1.77,8.24-.06,16.48,.1,24.72-.06,11.42-.23,22.9-9.6,27.02-21.81,5.46-16.17-3.48-35.64-18.95-41.34-2.93-1.08-5.96-1.4-9.05-1.42-9.07-.07-18.13-.15-27.2-.18-1.29,0-2.13,.02-2.1-1.76,.03-1.61,.52-1.88,1.99-1.87,9.9,.06,19.81-.16,29.71,.1,8.34,.22,15.06,4.34,20.68,10.18,17,17.68,12.05,47.39-9.72,58.74-4.05,2.11-8.34,3.19-12.91,3.18-9.07-.02-18.14-.06-27.21,.04-1.89,.02-2.53-.37-2.51-2.42,.12-10.23,.05-20.46,.05-30.69Z"/><path class="cls-7" d="M261.48,60.94c0,12.3,.03,24.59-.04,36.89,0,1.69,.86,1.52,2,1.64,1.65,.17,1.45-.83,1.45-1.84,0-9.4,0-18.79,0-28.51,2.31,1.76,3.93,3.35,3.86,6.47-.21,8.48-.13,16.96-.03,25.44,.02,1.9-.52,2.46-2.38,2.32-2.32-.17-4.66-.06-6.99-.03-.93,.01-1.57-.04-1.56-1.28,.03-16.78,.02-33.55,.02-50.97,3.4,3.43,6.42,6.45,9.42,9.48,12.33,12.48,24.66,24.97,36.99,37.45,.51,.52,.9,1.26,1.69,1.38,.72,.11,1.58,.26,1.48-.98-.03-.41,0-.83,0-1.25,0-20.12-.02-40.25,.04-60.37,0-1.76-.26-2.54-2.25-2.35-2.14,.21-4.33,.17-6.48,0-1.61-.12-1.89,.46-1.88,1.94,.07,9.48,.03,18.96,.03,28.79-2.19-1.98-3.98-3.53-3.88-6.78,.26-8.47,.13-16.96,.05-25.44-.01-1.61,.38-2.14,2.07-2.1,4.74,.12,9.49,.09,14.23,.01,1.44-.02,2,.25,2,1.88-.06,22.87-.05,45.74,0,68.61,0,1.48-.34,1.91-1.91,2.02-3.26,.23-5.65-.68-8.05-3.14-12.38-12.67-25-25.11-37.51-37.66-.63-.63-1.06-1.48-1.58-2.22-.26,.19-.52,.38-.78,.58Z"/><path class="cls-2" d="M316.92,31.1c2.66-.72,4.39,.02,6.07,2.49,7.22,10.64,14.7,21.11,22.13,31.6,.81,1.15,1.16,2.27,1.15,3.67-.1,9.48-.08,18.95-.22,28.43-.03,1.77,.46,2.32,2.19,2.16,2.79-.26,6.53,1.16,8.11-.54,1.39-1.49,.42-5.2,.43-7.92,.02-7.4,.04-14.8-.02-22.2-.01-1.49,.36-2.69,1.21-3.9,6.55-9.29,13.05-18.61,19.56-27.92,.46-.66,.87-1.35,1.33-2.08-2.58-.95-4,.05-5.38,2.09-6.27,9.28-12.69,18.45-19.08,27.65-.83,1.19-1.22,2.37-1.21,3.88,.09,8.65,.02,17.3,.07,25.94,0,1.41-.05,2.31-1.92,2.28-1.7-.03-2.04-.61-2.03-2.18,.07-9.15,.05-18.29,0-27.44,0-1.24,.35-2.21,1.05-3.21,7.26-10.42,14.5-20.84,21.68-31.31,.84-1.23,1.69-1.78,3.21-1.73,3.55,.11,7.1,.04,11.07,.04-4.19,6.01-8.15,11.7-12.12,17.38-4.23,6.05-8.45,12.11-12.74,18.12-.82,1.15-1.13,2.3-1.13,3.69,.04,10.31-.03,20.62,.07,30.93,.02,1.85-.41,2.41-2.31,2.34-4.57-.15-9.15-.13-13.73,0-1.75,.05-2.22-.44-2.2-2.19,.08-10.23,0-20.46,.08-30.68,.01-1.85-.49-3.31-1.54-4.8-7.79-11.05-15.51-22.15-23.24-33.25-.26-.37-.77-.69-.55-1.33Z"/><path class="cls-6" d="M221.43,67.18c0-11.31,.06-22.63-.05-33.94-.02-2.04,.61-2.51,2.48-2.37,2.07,.16,4.17,.17,6.24,0,1.9-.16,2.33,.47,2.32,2.33-.08,16.72-.05,33.44-.05,50.16,0,3.74-.1,7.49,.05,11.23,.07,1.71-.66,1.81-2.03,1.85-1.51,.04-1.95-.35-1.95-1.92,.06-19.22,.05-38.43,0-57.65,0-.78,.78-2.14-.99-2.29-1.39-.11-2.28-.01-2.27,1.88,.07,20.38,.06,40.76,0,61.14,0,1.64,.54,1.96,1.99,1.86,1.82-.12,3.67-.17,5.49,0,2.17,.21,2.89-.36,2.88-2.74-.11-21.21-.06-42.43-.08-63.64,0-1.38,0-2.3,1.9-2.25,1.66,.04,2.06,.5,2.05,2.11-.06,14.39-.04,28.78-.04,43.17,0,8.24-.05,16.47,.04,24.71,.02,1.84-.28,2.63-2.39,2.55-4.49-.18-8.99-.15-13.48,0-1.84,.06-2.14-.58-2.13-2.24,.07-11.31,.04-22.63,.04-33.94Z"/><path class="cls-2" d="M439.01,69.52c5.21,7.56,5.66,16.5,1.14,23.54-4.68,7.3-14.31,11.33-22.9,10.07-7.47-1.09-13.56-4.56-19.03-9.5-1.14-1.03-1.17-1.69-.11-2.74,3.13-3.1,6.21-6.25,9.23-9.46,.95-1.01,1.48-1.04,2.53-.05,3.06,2.9,6.42,5.27,10.95,5.08,2.33-.1,4.44-.86,5.19-3.14,.77-2.31-.58-4.17-2.4-5.57-2.04-1.57-4.46-2.14-6.98-2.24-2.58-.1-5.16-.14-7.73-.06-1.32,.04-1.71-.39-1.65-1.69,.1-2.24,.14-4.5,0-6.73-.11-1.65,.59-1.91,2.02-1.91,4.15,0,8.32,.36,12.41-.68,3.48-.88,6.43-2.59,8.73-5.39,4.34-5.27,3.29-12.36-2.56-15.88-6-3.62-11.89-2.69-17.55,.99-.8,.52-1.33,1.26-2.47,.15-1.59-1.55-1.65-2.31,.38-3.5,5.21-3.03,10.62-4.69,16.63-3.08,6.58,1.76,11.24,6.66,11.84,12.32,.68,6.4-2.69,12.58-8.6,15.88-4.66,2.61-9.72,3.12-14.93,3.03-.66-.01-1.79-.65-1.97,.74-.15,1.16-.13,2.07,1.57,1.98,2.82-.15,5.64,.04,8.4,.75,1.62,.42,3.13,1.07,4.5,2.04,3.52,2.5,5.07,6.29,4.05,9.91-.93,3.33-4.39,5.74-8.63,5.95-4.1,.21-7.65-1.31-10.83-3.71-1.17-.88-1.9-1.01-2.85,.19-.77,.97-1.75,1.78-2.63,2.66-2.74,2.74-2.79,2.81,.56,5.04,7.92,5.27,16.3,7.08,25.1,2.42,8.36-4.42,11.44-13.98,7.13-22.37-1.36-2.64-1.09-3.95,1.46-5.03Z"/><path class="cls-2" d="M424.77,70.76c3.78-2.1,7.34-3.9,9.96-7.04,4.31-5.17,5.83-10.95,3.5-17.38-2.36-6.53-7.42-10.08-14.03-11.28-7.83-1.42-14.68,1.14-20.87,5.9-1.1,.84-1.07,1.36-.13,2.25,1.62,1.55,2.88,3.72,4.77,4.68,2.26,1.15,3.6-1.75,5.56-2.51,3.36-1.29,6.65-2.03,10.17-.97,6.52,1.97,8.28,8.8,3.52,13.73-2.82,2.91-6.47,3.96-10.35,4.21-2.65,.18-5.33-.04-7.98,.12-1.66,.1-1.61-.75-1.65-1.94-.04-1.34,.27-1.91,1.77-1.91,3.72,0,7.49,.38,11.14-.67,.94-.27,1.89-.65,2.73-1.15,2.44-1.46,3.73-4.08,3.04-5.98-.73-2.02-3.48-3.41-6.23-3.17-3.94,.34-7.1,2.31-9.75,5.01-1.31,1.33-1.92,1.04-3.01-.13-3.01-3.22-6.14-6.32-9.22-9.47-.54-.55-1.35-.92-.3-1.92,6.89-6.5,14.64-10.76,24.49-10.25,9.32,.48,17.63,6.55,20.27,15.04,2.6,8.36-.74,18.06-8.15,23.63-.73,.55-1.47,1.07-2.28,1.66,4.06,4.37,5.85,9.43,4.12,15.31-2.2,7.45-10.44,11.85-18.75,10.17-3.11-.63-6.08-1.67-8.74-3.41-.69-.45-2.51-.56-1.53-2.03,.71-1.05,1.52-2.62,3.51-1.15,2.27,1.69,5.01,2.51,7.81,3.04,5.77,1.09,11.58-1.7,13.72-6.61,2.17-4.96,.3-10.44-4.79-14.08-.73-.52-1.45-1.06-2.33-1.71Z"/><path class="cls-8" d="M177.98,70.3c0-7.98,.05-15.97-.04-23.95-.02-1.68,.49-2.04,2.07-2.02,6.82,.09,13.65-.05,20.47,.09,2.05,.04,2.58-.61,2.42-2.52-.16-1.9-.1-3.83,0-5.73,.06-1.25-.25-1.73-1.63-1.73-13.64,.05-27.29,.04-40.93,0-1.16,0-1.56,.25-1.59,1.5-.03,1.42,.57,1.59,1.76,1.59,12.23-.03,24.46,.03,36.69-.07,2.02-.02,2.35,.69,2.26,2.43-.07,1.22-.48,1.53-1.63,1.53-13.81-.03-27.62-.03-41.43,0-1.11,0-1.43-.36-1.4-1.42,.06-2.66,.07-5.32,0-7.98-.03-1.17,.5-1.35,1.5-1.35,16.14,.02,32.28,.03,48.42-.01,1.35,0,1.68,.46,1.66,1.73-.06,4.57-.11,9.15,.02,13.72,.05,1.63-.5,1.89-1.97,1.87-6.9-.08-13.81,.03-20.72-.08-1.74-.03-2.18,.44-2.17,2.18,.08,14.72,.03,29.43,.06,44.15,0,1.44-.1,2.27-1.95,2.2-1.54-.06-1.92-.42-1.9-1.95,.08-8.06,.04-16.13,.04-24.2Z"/><path class="cls-4" d="M171.04,75.52c0-8.49-.06-16.97,.05-25.46,.02-1.79-.48-2.2-2.2-2.15-4.07,.13-8.16-.04-12.23,.08-1.58,.05-1.72-.62-1.68-1.89,.04-1.19,0-2,1.65-1.97,5.49,.1,10.99,.13,16.48,0,2-.05,1.84,1.03,1.83,2.33-.01,14.31,0,28.62,0,42.93,0,2.83,.06,5.66-.03,8.48-.04,1.21,.35,1.57,1.54,1.52,2.82-.12,6.42,.91,8.23-.47,1.7-1.3,.47-5.11,.48-7.82,.06-12.56,.03-25.12,.01-37.68,0-1.35-.05-2.33,1.88-2.34,1.83,0,1.95,.75,1.94,2.21-.04,15.97-.04,31.94,0,47.92,0,1.49-.16,2.2-1.96,2.15-4.66-.15-9.32-.13-13.98,0-1.71,.04-2.06-.55-2.04-2.13,.07-8.57,.03-17.14,.03-25.71Z"/><path class="cls-8" d="M457.09,70.68c0-7.9,.06-15.79-.05-23.69-.02-1.79,.49-2.19,2.21-2.16,5.9,.11,11.81,.04,17.72,.04,10.59,0,17.8,5.4,20.89,15.63,3.47,11.52-3.97,25.07-15.46,28.11-3.09,.82-6.27,.57-9.42,.54-1.7-.01-.96-1.4-1.1-2.25-.15-.94,.04-1.61,1.27-1.53,1.33,.09,2.67-.11,3.99,.04,8.26,.93,16.78-7.76,17.89-17.12,.99-8.33-5.53-17.78-13.65-19.59-1.67-.37-3.47-.22-5.21-.24-4.41-.03-8.82,.07-13.22-.05-1.68-.05-2.02,.49-2.02,2.07,.06,14.55,.01,29.09,.07,43.64,0,1.61-.19,2.41-2.09,2.31-1.42-.07-1.77-.44-1.76-1.82,.06-7.98,.03-15.96,.03-23.94h-.09Z"/><path class="cls-1" d="M251.35,34.31c4.18,4.24,8.35,8.48,12.54,12.71,8.55,8.62,17.11,17.24,25.66,25.86,3.81,3.84,7.6,7.69,11.41,11.52q3.26,3.27,3.11,8.65c-16.63-16.83-32.93-33.32-49.34-49.93-.57,.88-.32,1.79-.32,2.62-.02,18.46-.01,36.92-.02,55.38,0,1.08,.43,2.3-1.57,2.27-1.67-.03-2.05-.52-2.04-2.11,.06-13.55,.03-27.11,.03-40.66,0-8.65,0-17.29,0-25.94,.18-.12,.36-.24,.54-.36Z"/><path class="cls-5" d="M300.35,73.53c0-11.27,.07-22.22-.06-33.18-.02-2.09,.68-2.52,2.51-2.35,.93,.09,1.34,.33,1.34,1.3-.05,14.29-.08,28.59-.12,42.88,0,.06-.12,.11-.36,.33-16.83-17.06-33.66-34.12-50.8-51.5,2.77-.07,4.93-.55,7.05,1.64,12.27,12.66,24.71,25.15,37.11,37.69,.99,1,2.03,1.94,3.33,3.18Z"/><path class="cls-3" d="M347.39,56.15c5.3-7.76,10.53-15.14,15.42-22.73,1.61-2.51,3.42-2.88,6.26-2.28-7.23,10.57-14.36,20.98-21.62,31.6-7.48-10.62-14.8-21.02-22.42-31.83,4.35,0,8.28,.02,12.22-.02,.92,0,1.28,.58,1.71,1.19,3.36,4.73,6.74,9.46,10.09,14.2,.77,1.09,.06,3.78-1.1,4.15-.92,.29-1.03-.64-1.37-1.1-2.92-4.03-5.92-8.01-8.62-12.18-1.39-2.16-2.92-3.14-5.7-2.32,5.01,7.06,9.97,14.06,15.12,21.33Z"/><path class="cls-9" d="M47.64,66.67c-1.97-5.23,1.33-7.24,5.2-9.71,4.14-2.65,7.45-2.99,11.26,.14,1.59,1.31,4.28,1.76,5.15,3.33,.93,1.66,.04,4.23,.4,6.33,.81,4.79-.88,7.88-5.48,9.55-2.06,.75-3.76,3.08-5.82,2.91-1.94-.16-3.67-2.14-5.64-2.94-4.43-1.8-6.8-4.58-5.07-9.6Z"/></g></g></svg>